<!--?xml version="1.0" encoding="utf-8"?-->
<!-- Generator: Adobe Illustrator 18.1.1, SVG Export Plug-In . SVG Version: 6.00 Build 0)  -->

<svg version="1.1" id="_x31_0" xmlns="http://www.w3.org/2000/svg" xmlns:xlink="http://www.w3.org/1999/xlink" x="0px" y="0px" viewBox="0 0 512 512" style="enable-background:new 0 0 512 512;" xml:space="preserve">
<style type="text/css">
	.st0{fill:#374149;}
</style>
<g>
	<path class="st0" d="M472.273,206.097c-2.292-11.838-8.021-22.612-16.575-31.166L298.282,17.514C286.984,6.219,271.968,0,255.996,0
		c-15.972,0-30.988,6.219-42.286,17.514L56.298,174.93c-11.404,11.4-17.683,26.562-17.683,42.686s6.279,31.286,17.68,42.684
		c4.322,4.325,9.241,7.95,14.608,10.77c3.47,1.827,7.138,3.314,10.906,4.428c5.573,1.652,11.351,2.488,17.172,2.488
		c5.828,0,11.606-0.836,17.179-2.488c9.586-2.836,18.41-8.09,25.511-15.195l31.691-31.688l22.263-22.131V451.63
		c0,33.286,27.084,60.37,60.37,60.37s60.37-27.083,60.37-60.37V307.469l0.097-101.023l53.858,53.855
		c4.318,4.325,9.238,7.947,14.611,10.774c3.47,1.824,7.138,3.314,10.903,4.425c5.573,1.652,11.351,2.488,17.172,2.488
		c5.825,0,11.606-0.836,17.182-2.488c9.586-2.839,18.41-8.094,25.508-15.195c5.758-5.758,10.22-12.482,13.262-19.975
		c1.459-3.602,2.574-7.367,3.314-11.195C473.756,221.491,473.756,213.742,472.273,206.097z"></path>
</g>
</svg>
